<svg width="132" height="32" viewBox="0 0 132 32" fill="none" xmlns="http://www.w3.org/2000/svg">
<mask id="mask0_172_9969" style="mask-type:luminance" maskUnits="userSpaceOnUse" x="0" y="0" width="132" height="32">
<path d="M131.964 0H0V32H131.964V0Z" fill="white"/>
</mask>
<g mask="url(#mask0_172_9969)">
<path d="M0.942383 24.267L15.2479 30.2115L15.2552 16.1457L0.942383 10.1987V24.267Z" fill="#044C7F"/>
<path d="M20.9207 27.7589L22.943 26.2108V28.7449L20.9207 27.7589Z" fill="#044C7F"/>
<path d="M15.9714 16.1005V30.0904L23.3434 25.2791C23.4535 25.2073 23.5939 25.2021 23.7091 25.2659C23.8243 25.3299 23.8955 25.4523 23.8955 25.5851V27.7589L25.995 23.6069C26.0235 23.5503 26.0665 23.502 26.1197 23.4674L28.1467 22.1446V8.15498L15.9714 16.1005Z" fill="#F15A22"/>
<path d="M13.5128 1.65184L1.35693 9.5847L15.5956 15.481L27.7514 7.54807L13.5128 1.65184Z" fill="#0F90C0"/>
<path d="M28.7263 6.91839L13.6969 0.695009C13.5204 0.622139 13.3199 0.640894 13.1602 0.745432L0.26787 9.15857C0.26787 9.15857 0.265143 9.16071 0.263627 9.16164C0.26181 9.16287 0.259991 9.1638 0.258173 9.16503C0.243629 9.17487 0.230599 9.18589 0.216962 9.19697C0.211811 9.20133 0.206054 9.20499 0.201206 9.20935C0.182419 9.22589 0.164843 9.24345 0.14848 9.26187C0.140904 9.27048 0.134237 9.28003 0.126965 9.28923C0.118784 9.29999 0.109997 9.31048 0.102421 9.32155C0.0951488 9.33197 0.0890879 9.34339 0.0827246 9.35413C0.0763612 9.36488 0.0699977 9.37535 0.0645433 9.38637C0.0587859 9.39779 0.0536346 9.40974 0.0487862 9.4214C0.0439379 9.43284 0.0390895 9.44453 0.0348473 9.45619C0.0306051 9.46823 0.0269689 9.48016 0.0236357 9.49243C0.0199994 9.50481 0.0169692 9.51735 0.0142419 9.52996C0.0118178 9.54198 0.00939364 9.55426 0.00757551 9.56654C0.00545436 9.57977 0.00424235 9.59331 0.00303027 9.60687C0.0021212 9.61882 0.000909136 9.63083 0.000909136 9.64311C0.000909136 9.64773 0 9.65232 0 9.65694V24.5113C0 24.7526 0.142419 24.968 0.362714 25.0597L15.3849 31.3016C15.3868 31.3021 15.3886 31.3025 15.3901 31.3031C15.461 31.3325 15.537 31.3488 15.6134 31.3488C15.7255 31.3488 15.8346 31.3163 15.9291 31.2547L20.1532 28.4981L23.4174 29.8543L23.4219 29.8432C23.6782 29.896 23.937 29.7721 24.0574 29.5341L26.7622 24.1853L28.8216 22.8413C28.9894 22.7319 29.0897 22.5455 29.0897 22.3429V7.4675C29.0897 7.22553 28.9468 7.01 28.7263 6.91839ZM23.8173 25.0646C23.6295 24.9609 23.4012 24.9697 23.2217 25.0865L16.1974 29.6707V16.2256L27.9215 8.57469V22.0197L25.9978 23.2748C25.9116 23.3314 25.841 23.4102 25.7947 23.5027L24.1218 26.8108V25.5851C24.1218 25.3684 24.005 25.1686 23.8173 25.0646ZM22.7171 26.6705V28.3805L21.3526 27.7154L22.7171 26.6705ZM1.16784 10.5403L15.0292 16.2997L15.0222 29.8703L1.16784 24.1135V10.5403ZM15.5725 15.2236L1.84448 9.53891L13.5365 1.90888L27.2648 7.59357L15.5725 15.2236Z" fill="#231F20"/>
<path d="M21.6311 20.3429L25.8736 17.5741C26.0052 17.4883 26.0954 17.3562 26.1284 17.2015C26.1615 17.0469 26.1333 16.8882 26.0491 16.7551C25.8749 16.4805 25.5125 16.4012 25.2418 16.5774L20.9993 19.3461C20.868 19.4318 20.7779 19.5641 20.7444 19.7187C20.7114 19.8733 20.7396 20.032 20.8238 20.1652C20.9317 20.3354 21.1156 20.4372 21.3156 20.4372C21.4274 20.4372 21.5364 20.4045 21.6311 20.3429Z" fill="#231F20"/>
<path d="M19.9152 23.7163C19.7629 23.6828 19.6068 23.7114 19.4755 23.7968L18.2441 24.6004C17.9736 24.7771 17.8947 25.1447 18.0689 25.4193C18.1768 25.5898 18.3605 25.6915 18.5608 25.6915C18.6729 25.6915 18.7817 25.659 18.8762 25.5974L20.1077 24.794C20.3782 24.6171 20.4572 24.2499 20.2828 23.9749C20.1986 23.8419 20.0679 23.75 19.9152 23.7163Z" fill="#231F20"/>
<path d="M26.1293 20.6584C26.1623 20.5036 26.1341 20.3449 26.0499 20.2119C25.8757 19.9373 25.5132 19.8577 25.2426 20.0342L21.4886 22.4841C21.2176 22.6608 21.1392 23.0283 21.3134 23.3031C21.4213 23.4735 21.6052 23.5753 21.8052 23.5753C21.917 23.5753 22.0261 23.5427 22.1205 23.4811L25.8744 21.0313C26.0061 20.9455 26.0962 20.813 26.1293 20.6584Z" fill="#231F20"/>
<path d="M18.5614 18.7779C18.6734 18.7779 18.7824 18.7453 18.8769 18.6839L25.8745 14.1174C26.006 14.0316 26.0963 13.8993 26.1294 13.7447C26.1624 13.5901 26.1342 13.4314 26.05 13.2983C25.8757 13.0237 25.5136 12.9434 25.2427 13.1202L18.2451 17.6867C17.9745 17.8635 17.8957 18.2309 18.0699 18.5058C18.1778 18.6761 18.3615 18.7779 18.5614 18.7779Z" fill="#231F20"/>
<mask id="mask1_172_9969" style="mask-type:luminance" maskUnits="userSpaceOnUse" x="37" y="-4" width="95" height="40">
<path d="M131.964 -3.25581H37.4915V35.2558H131.964V-3.25581Z" fill="white"/>
</mask>
<g mask="url(#mask1_172_9969)">
<path d="M41.9231 16.8588V22.9693H46.7928C47.6516 22.9693 48.3816 22.6698 48.9828 22.0707C49.6012 21.4716 49.9104 20.7527 49.9104 19.914C49.9104 19.0753 49.6012 18.3565 48.9828 17.7574C48.3816 17.1583 47.6516 16.8588 46.7928 16.8588H41.9231ZM41.9231 9.10511V14.8048H45.8652C46.6897 14.8048 47.3854 14.531 47.9522 13.9832C48.5019 13.4355 48.7767 12.7594 48.7767 11.955C48.7767 11.1505 48.5019 10.4744 47.9522 9.92669C47.3854 9.37897 46.6897 9.10511 45.8652 9.10511H41.9231ZM39.8877 7.05116H45.9425C47.2995 7.05116 48.4589 7.53041 49.4208 8.48892C50.3655 9.44743 50.8379 10.5942 50.8379 11.9293C50.8379 13.3328 50.3054 14.5139 49.2405 15.4724C50.0478 15.8832 50.7091 16.4993 51.2244 17.3209C51.7225 18.0912 51.9716 18.9641 51.9716 19.9397C51.9716 21.3432 51.4734 22.5414 50.4772 23.5341C49.4809 24.5269 48.2786 25.0232 46.8701 25.0232H39.8877V7.05116ZM60.2176 13.8806C58.9121 13.8806 57.8557 14.3341 57.0484 15.2413C56.6534 15.7034 56.3528 16.2169 56.1467 16.7818C55.9405 17.3295 55.8375 17.9371 55.8375 18.6046C55.8375 19.9226 56.2411 21.0437 57.0484 21.968C57.8557 22.8752 58.9121 23.3287 60.2176 23.3287C61.4886 23.3287 62.5278 22.8752 63.3352 21.968C63.7474 21.5059 64.048 21.0009 64.2369 20.4532C64.4431 19.8884 64.5461 19.2722 64.5461 18.6046C64.5461 17.2696 64.1425 16.1485 63.3352 15.2413C62.5278 14.3341 61.4886 13.8806 60.2176 13.8806ZM60.2176 11.8779C62.0383 11.8779 63.5499 12.5284 64.7522 13.8292C65.9718 15.13 66.5816 16.7219 66.5816 18.6046C66.5816 20.4703 65.9718 22.0621 64.7522 23.3801C63.5499 24.6809 62.0383 25.3313 60.2176 25.3313C58.3625 25.3313 56.8337 24.6809 55.6314 23.3801C54.429 22.0621 53.8278 20.4703 53.8278 18.6046C53.8278 16.7219 54.429 15.13 55.6314 13.8292C56.8337 12.5284 58.3625 11.8779 60.2176 11.8779ZM68.3123 12.186H70.322V19.0411C70.322 20.3248 70.6655 21.3604 71.3526 22.1477C72.0053 22.9351 72.847 23.3287 73.8776 23.3287C74.8739 23.3287 75.7069 22.9351 76.3768 22.1477C77.0639 21.3604 77.4074 20.3248 77.4074 19.0411V12.186H79.4171V19.0154C79.4171 20.8982 78.8846 22.4216 77.8197 23.5855C76.7375 24.7494 75.4235 25.3313 73.8776 25.3313C72.3145 25.3313 70.9919 24.7494 69.9098 23.5855C68.8448 22.4216 68.3123 20.8982 68.3123 19.0154V12.186ZM92.9939 25.0232H90.9842V18.1682C90.9842 16.8502 90.6493 15.8147 89.9794 15.0616C89.3266 14.2742 88.485 13.8806 87.4544 13.8806C86.4409 13.8806 85.5993 14.2742 84.9294 15.0616C84.2423 15.8489 83.8988 16.8845 83.8988 18.1682V25.0232H81.8891V12.186H83.8472V13.8035C83.8988 13.7351 83.9503 13.6666 84.0018 13.5981C84.0534 13.5297 84.1049 13.4698 84.1564 13.4184C85.0324 12.3914 86.1833 11.8779 87.609 11.8779C89.1549 11.8779 90.4431 12.4599 91.4737 13.6238C91.989 14.1886 92.3669 14.8562 92.6074 15.6264C92.8651 16.3966 92.9939 17.2525 92.9939 18.1939V25.0232ZM96.36 8.18083H98.3697V12.186H102.312V14.1886H98.3697V19.76C98.3697 20.6672 98.6874 21.4288 99.323 22.045C99.9585 22.6954 100.731 23.0206 101.642 23.0206H102.286V25.0232H101.642C100.182 25.0232 98.9365 24.5012 97.9059 23.4571C96.8753 22.4301 96.36 21.1978 96.36 19.76V14.1886H94.1184V12.186H96.36V8.18083ZM104.225 25.0232V12.186H106.235V25.0232H104.225ZM106.544 7.92409C106.544 8.28353 106.424 8.58306 106.183 8.82269C105.925 9.07944 105.616 9.20781 105.256 9.20781C104.912 9.20781 104.611 9.07944 104.354 8.82269C104.096 8.56595 103.967 8.26641 103.967 7.92409C103.967 7.56464 104.096 7.25655 104.354 6.99981C104.594 6.76018 104.895 6.64037 105.256 6.64037C105.633 6.64037 105.943 6.76018 106.183 6.99981C106.424 7.23944 106.544 7.54753 106.544 7.92409ZM120.778 19.5032H110.678C110.764 20.051 110.918 20.5559 111.142 21.018C111.382 21.4631 111.691 21.8653 112.069 22.2247C112.859 22.9607 113.813 23.3287 114.929 23.3287C116.561 23.3287 117.841 22.8666 118.768 21.9423L120.159 23.4058C118.871 24.6895 117.128 25.3313 114.929 25.3313C113.091 25.3313 111.562 24.6809 110.343 23.3801C109.123 22.0621 108.513 20.4703 108.513 18.6046C108.513 16.7219 109.115 15.13 110.317 13.8292C111.519 12.5284 113.048 11.8779 114.903 11.8779C116.69 11.8779 118.115 12.5198 119.18 13.8035C120.245 15.0701 120.778 16.6705 120.778 18.6046V19.5032ZM114.878 13.8549C113.761 13.8549 112.808 14.2229 112.018 14.9589C111.279 15.6778 110.832 16.5764 110.678 17.6547H118.665C118.51 16.525 118.124 15.6093 117.506 14.9075C116.853 14.2058 115.977 13.8549 114.878 13.8549ZM130.333 14.2913L128.427 14.9589C128.307 14.6166 128.058 14.3341 127.68 14.1116C127.302 13.9062 126.864 13.8035 126.366 13.8035C125.713 13.8035 125.215 13.9661 124.871 14.2913C124.493 14.6166 124.313 15.0273 124.33 15.5237C124.33 16.0714 124.734 16.525 125.541 16.8845C125.73 16.9529 125.928 17.0214 126.134 17.0899C126.357 17.1583 126.58 17.2268 126.804 17.2952C128.143 17.6547 129.131 18.1425 129.767 18.7587C130.505 19.4433 130.875 20.2906 130.875 21.3005C130.857 22.4644 130.394 23.4314 129.483 24.2017C128.607 24.9548 127.525 25.3313 126.237 25.3313C125.206 25.3313 124.313 25.0917 123.557 24.6125C122.801 24.1332 122.235 23.4742 121.857 22.6355L123.738 21.968C124.201 22.9265 125.026 23.4058 126.211 23.4058C126.984 23.4058 127.611 23.2004 128.092 22.7896C128.59 22.3617 128.83 21.8567 128.813 21.2748C128.813 20.6244 128.375 20.0938 127.499 19.683C127.293 19.5632 127.07 19.4605 126.829 19.3749C126.589 19.2893 126.323 19.2123 126.031 19.1438C125.498 19.0069 125 18.8272 124.536 18.6046C124.09 18.365 123.686 18.0997 123.325 17.8087C122.638 17.2097 122.295 16.4394 122.295 15.498C122.295 14.4368 122.681 13.5725 123.454 12.9049C124.227 12.2203 125.198 11.8779 126.366 11.8779C127.328 11.8779 128.161 12.0919 128.865 12.5198C129.535 12.9477 130.024 13.5382 130.333 14.2913Z" fill="white"/>
</g>
</g>
</svg>
